# xmcd
#
# Track frame offsets:
#	150
#	10901
#	29870
#	53433
#	78287
#	90480
#	114272
#	128728
#	144824
#	161647
#	174249
#
# Disc length: 2456 seconds
#
# Revision: 1
# Processed by: cddbd v1.5.2PL0 Copyright (c) Steve Scherf et al.
# Submitted via: audiograbber 1.83.01
#
DISCID=7909960b
DTITLE=Nick Piccininni - The Door's Open
DYEAR=2013
DGENRE=Country
TTITLE0=THORNS and ROSES
TTITLE1=DANCE WITH YOU
TTITLE2=HOMETOWN
TTITLE3=WEARY MAN
TTITLE4=THE DOOR IS OPEN (HEY, LIZZY!)
TTITLE5=GRANDAD SONG
TTITLE6=WHO GOT WHO?
TTITLE7=I'D FALL FOR YOU
TTITLE8=SHENANDOAH
TTITLE9=WHO I'M MEANT TO BE
TTITLE10=OUTRO
EXTD=
EXTT0=
EXTT1=
EXTT2=
EXTT3=
EXTT4=
EXTT5=
EXTT6=
EXTT7=
EXTT8=
EXTT9=
EXTT10=
PLAYORDER=
